<?xml version="1.0" encoding="UTF-8"?>
<svg width="117px" height="99px" viewBox="0 0 117 99" version="1.1" xmlns="http://www.w3.org/2000/svg" xmlns:xlink="http://www.w3.org/1999/xlink">
    <!-- Generator: Sketch 49.3 (51167) - http://www.bohemiancoding.com/sketch -->
    <title>LOGO YONKA</title>
    <desc>Created with Sketch.</desc>
    <defs>
        <polygon id="path-1" points="3.36428709e-16 46.9832989 3.36428709e-16 0.52676038 30.9980914 0.52676038 30.9980914 46.9832989"></polygon>
        <polygon id="path-3" points="68.4238172 0.17210239 0.261035388 0.17210239 0.261035388 86.7982989 68.4238172 86.7982989"></polygon>
        <polygon id="path-5" points="0 99 117 99 117 0 0 0"></polygon>
    </defs>
    <g id="00-Homepage" stroke="none" stroke-width="1" fill="none" fill-rule="evenodd">
        <g id="00-HOMEPAGE" transform="translate(-662.000000, -61.000000)">
            <g id="HEADER" transform="translate(0.000000, -1.000000)">
                <g id="LOGO-YONKA" transform="translate(662.000000, 62.000000)">
                    <g id="Page-1">
                        <g id="Group-3">
                            <mask id="mask-2" fill="white">
                                <use xlink:href="#path-1"></use>
                            </mask>
                            <g id="Clip-2"></g>
                            <path d="M19.23012,24.5345656 C22.8209057,16.4661165 29.4564771,2.83850704 30.9980914,0.52676038 L24.4031914,0.52676038 C24.7898486,2.65495514 17.0438914,20.0750379 16.6282629,21.9570045 C16.6282629,20.1041376 9.66119143,6.84642996 8.14186286,0.52676038 L-0.000222857143,0.52676038 C2.26734857,3.74843201 5.92610571,11.2035492 8.59203429,16.7800574 C10.1503629,20.047617 13.3149343,26.607359 13.3149343,27.149061 C13.3494771,34.2740086 13.5266486,39.8040692 12.9890057,46.9832989 L19.7733343,46.9832989 C19.0094914,39.8040692 19.24962,32.0159844 19.23012,24.5345656" id="Fill-1" fill="#6F7072" mask="url(#mask-2)"></path>
                        </g>
                        <path d="M116.279012,13.4921966 C116.279012,13.4921966 116.111249,5.01292843 117,0.773015499 L111.086775,0.773015499 C111.453722,2.37964303 111.590064,6.23142241 111.590064,6.23142241 C112.076521,16.0111611 111.787004,33.3416588 112.308808,36.0061733 C108.678619,29.6437944 86.7314046,2.73989343 86.0154663,0.712230216 L82.2545455,0.716133858 C82.8251641,2.95459374 82.9833887,17.3289191 82.9659952,17.3227848 C82.9659952,17.3227848 83.4973382,40.3386583 82.4946878,47.0071942 L87.4176058,47.0071942 C87.034388,43.2139695 86.944054,42.3111129 87.0108226,39.3633055 C87.1712915,32.4086883 87.034388,14.0119387 86.6096502,11.6468893 C87.7963349,14.219947 112.274582,45.6124787 112.74589,47.0071942 C112.740279,46.9915797 116.518593,47.0071942 116.456313,47.0071942 C116.029331,44.7575811 116.279012,13.4921966 116.279012,13.4921966" id="Fill-4" fill="#6F7072"></path>
                        <g id="Group-8" transform="translate(25.527273, 0.000000)">
                            <mask id="mask-4" fill="white">
                                <use xlink:href="#path-3"></use>
                            </mask>
                            <g id="Clip-7"></g>
                            <path d="M41.7588398,71.8085732 C42.6049121,69.7966009 43.4481884,67.9410344 44.3015303,66.0849073 C45.800191,62.8188861 48.0118341,58.0779417 48.5240629,56.0850297 C48.9356354,57.9473233 52.5693285,66.6006539 54.5192651,71.8085732 L41.7588398,71.8085732 Z M46.8911937,49.7497557 C46.1860403,52.9232789 40.6521795,65.5102984 37.1101955,73.4460685 C34.0452106,66.3876282 30.5418114,58.6155515 27.3638678,51.5526263 C30.7559857,44.6421828 32.4570775,41.2589974 37.5351888,30.7910237 C38.425438,28.9590021 38.5356008,28.7347645 40.4849782,25.5735743 L34.6508261,25.5735743 C34.068697,29.3805689 23.8962576,50.2716688 23.714517,51.9999804 C23.6949449,43.3954215 23.2777804,31.3286334 24.1624376,25.5735743 L17.3877081,25.5735743 C18.2198004,32.7654361 18.1208216,40.2230195 18.1208216,47.6262252 C8.88504514,42.0202842 5.85528993,32.58044 6.09854271,25.5679684 C6.62307397,10.9403864 18.7829165,3.49401488 26.5010194,3.32023071 C33.1270012,3.16326436 46.553995,10.0725867 47.2831941,25.5735743 C47.5024012,30.191188 45.46467,41.501174 34.6748718,47.6262252 L43.6349618,47.6262252 C49.0457981,43.2121072 53.4534265,35.5089836 53.4987219,25.5713319 C53.543458,17.1646627 46.0613383,0.171934212 26.5043746,0.171934212 C8.76425756,0.171934212 0.261035388,16.4964346 0.261035388,25.5797408 C0.261035388,36.4776903 4.80902341,42.9957179 9.73447264,47.6262252 C12.4935742,47.6262252 15.4064562,47.6262252 18.1420713,47.6385583 C18.2919374,60.7755206 18.543019,82.1184593 17.6958283,86.7982989 L24.3190141,86.7982989 C23.4964283,82.1263077 23.6228079,65.284379 23.6524456,54.8124811 C23.839219,57.0924173 36.2311303,84.9303994 35.8944908,86.7982989 L43.5180886,86.7982989 C42.0339671,83.9633745 41.2365454,82.0377338 39.2122349,77.7654461 L40.4497485,74.8554021 C47.2574709,74.5201668 48.0739055,74.4848494 55.7310553,74.7544952 C57.2884323,78.5687775 60.0492114,85.059336 60.2343072,86.7982989 L68.4238172,86.7982989 C64.7604864,82.4991027 52.3562726,52.9843837 51.6863489,49.7497557 L46.8911937,49.7497557 Z" id="Fill-6" fill="#6F7072" mask="url(#mask-4)"></path>
                        </g>
                        <path d="M47.5218195,93.7015418 C47.255579,93.992878 46.8010607,94.1373761 46.1667505,94.1373761 L44.2468484,94.1373761 L44.2468484,90.8379056 L46.1428843,90.8379056 C46.5841436,90.8379056 46.8986469,90.8747614 47.0651798,90.9215624 C47.31604,91.0069742 47.5218195,91.1912532 47.68464,91.465624 C47.83208,91.74292 47.9243625,92.072282 47.9243625,92.4531251 C47.9243625,93.0036219 47.7859387,93.4055255 47.5218195,93.7015418 M48.1052152,90.2669334 C47.8649623,90.057499 47.5547018,89.9118308 47.1887537,89.8346092 C46.9230434,89.7825431 46.5533827,89.7410072 46.0633304,89.7410072 L43.2545455,89.7410072 L43.2545455,99 L44.2468484,99 L44.2468484,95.2301795 L46.1428843,95.2301795 C47.1983001,95.2301795 47.9301965,94.9563936 48.3162984,94.4181821 C48.7246753,93.8747055 48.9272727,93.2019411 48.9272727,92.4273846 C48.9272727,91.9564495 48.8540831,91.5387506 48.7008091,91.1555674 C48.5523084,90.7858395 48.3566057,90.4746129 48.1052152,90.2669334" id="Fill-9" fill="#6F7072"></path>
                        <path d="M56.0666089,95.1995187 L56.8868926,92.4930799 C57.0681558,91.9051052 57.2072145,91.3101099 57.3116437,90.7063388 C57.4431272,91.2205973 57.6265548,91.8688321 57.8543512,92.6416824 L58.6443342,95.1995187 L56.0666089,95.1995187 Z M56.7792168,89.7410072 L53.8909091,99 L54.9525164,99 L55.778211,96.2063888 L58.9532933,96.2063888 L59.837425,99 L60.9818182,99 L57.8824876,89.7410072 L56.7792168,89.7410072 Z" id="Fill-11" fill="#6F7072"></path>
                        <path d="M70.7271474,93.8334282 L68.4415005,93.8334282 L68.4415005,90.7730344 L70.9789365,90.7730344 C71.5744924,90.7730344 72.0108118,90.9070108 72.2959428,91.1907598 C72.5736006,91.4733387 72.7058186,91.8354843 72.7058186,92.2725162 C72.7058186,92.5667961 72.6316616,92.8476198 72.4896709,93.1062117 C72.3494049,93.3589531 72.1367063,93.5449988 71.8647971,93.6672741 C71.596912,93.7766784 71.2140546,93.8334282 70.7271474,93.8334282 M72.1815455,95.2568535 C72.0366805,95.1024005 71.8228323,94.9473624 71.5319527,94.788814 C72.30744,94.6723891 72.8719534,94.3833747 73.2450381,93.9264511 C73.6192726,93.4894191 73.8020783,92.9271866 73.8020783,92.2725162 C73.8020783,91.7646933 73.6917051,91.2978238 73.4709585,90.8777583 C73.2450381,90.4582778 72.9409367,90.164583 72.5736006,90.0013542 C72.1976416,89.8340301 71.6584221,89.7410072 70.9409957,89.7410072 L67.3636364,89.7410072 L67.3636364,99 L68.4415005,99 L68.4415005,94.8917827 L69.6814755,94.8917827 C69.9556841,94.8917827 70.150562,94.9116744 70.2741571,94.943267 C70.4368427,94.9883158 70.5949294,95.0632022 70.7553156,95.1802121 C70.9111029,95.3024874 71.0916092,95.5131052 71.2939603,95.7968542 C71.4922873,96.0928892 71.7383277,96.5293361 72.0568007,97.0816228 L73.1185687,99 L74.4545455,99 L73.0541843,96.480192 C72.7862991,95.9905056 72.4896709,95.5809709 72.1815455,95.2568535" id="Fill-13" fill="#6F7072"></path>
                        <mask id="mask-6" fill="white">
                            <use xlink:href="#path-5"></use>
                        </mask>
                        <g id="Clip-16"></g>
                        <polygon id="Fill-15" fill="#6F7072" mask="url(#mask-6)" points="79.4181818 99 80.8363636 99 80.8363636 89.7410072 79.4181818 89.7410072"></polygon>
                        <path d="M92.380978,94.1363818 C92.0958057,93.9789795 91.5700033,93.7876055 90.8030587,93.5662231 C90.041234,93.351635 89.5758451,93.1381794 89.3864129,92.9230251 C89.2010765,92.7180624 89.1135281,92.4513844 89.1135281,92.1377122 C89.1135281,91.7583613 89.2471546,91.44752 89.5026321,91.1853716 C89.771933,90.9186936 90.1717886,90.789601 90.7462291,90.789601 C91.2899508,90.789601 91.7092616,90.9277527 91.9893141,91.2227405 C92.2657827,91.5041396 92.4285921,91.9304847 92.4818379,92.4853561 L93.3895766,92.4100521 C93.3726813,91.8778285 93.2539022,91.4175117 93.0419429,90.9985271 C92.8263997,90.5914326 92.5161405,90.2720984 92.1091172,90.0586428 C91.7041418,89.8451871 91.2397768,89.7410072 90.7098786,89.7410072 C90.2270824,89.7410072 89.7949721,89.84179 89.3992123,90.0467527 C89.0136922,90.2466197 88.7121365,90.5438722 88.5129767,90.94304 C88.3020414,91.3371119 88.1929898,91.7555303 88.1929898,92.2073542 C88.1929898,92.6218092 88.2820742,92.9943658 88.4520512,93.3295534 C88.6225402,93.6658735 88.8739219,93.9325515 89.2067082,94.1624268 C89.4719134,94.3436093 89.9342304,94.5196961 90.5762521,94.7229602 C91.2397768,94.9205624 91.6524319,95.0660746 91.8521037,95.1611954 C92.1500755,95.2970823 92.3548671,95.4737353 92.4905415,95.6894557 C92.6231441,95.8910213 92.6907253,96.1384486 92.6907253,96.4136196 C92.6907253,96.6916215 92.6154644,96.9441446 92.4828618,97.1853439 C92.3482114,97.417484 92.1500755,97.6026298 91.8771907,97.7396491 C91.5986741,97.8670431 91.2812471,97.9389499 90.9228618,97.9389499 C90.5189104,97.9389499 90.1502855,97.8517558 89.8313226,97.6734043 C89.5026321,97.4944865 89.2650738,97.2674422 89.1084083,96.9735868 C88.9583984,96.6836948 88.8600985,96.3117044 88.8119724,95.8553509 L87.9272727,95.9572661 C87.9410962,96.559698 88.0701149,97.0975836 88.3235445,97.5731877 C88.5605907,98.049358 88.9102724,98.4015315 89.3454545,98.6365026 C89.7831966,98.8771356 90.3228224,99 90.9566524,99 C91.478871,99 91.9319724,98.8771356 92.3389957,98.6512237 C92.748067,98.408892 93.063446,98.0827635 93.2779652,97.6632127 C93.4878766,97.2442282 93.6,96.7969338 93.6,96.313403 C93.6,95.8355341 93.5088677,95.4131524 93.3045881,95.0502211 C93.1028684,94.6799294 92.8008008,94.3747501 92.380978,94.1363818" id="Fill-17" fill="#6F7072" mask="url(#mask-6)"></path>
                        <path d="M82.6244705,51.6356483 C82.6244705,50.4666407 83.5713333,49.5154865 84.7345477,49.5154865 C85.9003563,49.5154865 86.8487756,50.4666407 86.8487756,51.6356483 C86.8487756,52.8056982 85.9003563,53.7578948 84.7345477,53.7578948 C83.5713333,53.7578948 82.6244705,52.8056982 82.6244705,51.6356483 M87.2181818,51.6356483 C87.2181818,50.2612956 86.1042561,49.1438849 84.7345477,49.1438849 C83.3674335,49.1438849 82.2545455,50.2612956 82.2545455,51.6356483 C82.2545455,53.0110433 83.3674335,54.1294964 84.7345477,54.1294964 C86.1042561,54.1294964 87.2181818,53.0110433 87.2181818,51.6356483" id="Fill-18" fill="#6F7072" mask="url(#mask-6)"></path>
                        <path d="M85.8197561,50.8191136 C85.8197561,51.0744389 85.7443791,51.222541 85.5595838,51.3311045 C85.3972801,51.4242546 85.2203873,51.4557515 84.8593072,51.4557515 L84.1444414,51.4557515 L84.1444414,50.2461396 L84.8386393,50.2461396 C85.2082297,50.2461396 85.393025,50.2769662 85.5723493,50.3721268 C85.7340451,50.455895 85.8197561,50.6106985 85.8197561,50.8191136 Z M85.9382925,53.3824186 L85.9589604,53.4172662 L86.5090909,53.4172662 L85.5030511,51.7787614 C86.0167089,51.6340101 86.2981569,51.3069793 86.2981569,50.8492702 C86.2981569,50.2273755 85.8033433,49.8561151 84.9741963,49.8561151 L83.6727273,49.8561151 L83.6727273,53.4172662 L84.1444414,53.4172662 L84.1444414,51.8444356 L85.0185715,51.8444356 L85.9382925,53.3824186 Z" id="Fill-19" fill="#6F7072" mask="url(#mask-6)"></path>
                    </g>
                </g>
            </g>
        </g>
    </g>
</svg>